<?xml version="1.0" standalone="no"?>
<!DOCTYPE svg PUBLIC "-//W3C//DTD SVG 20010904//EN"
 "http://www.w3.org/TR/2001/REC-SVG-20010904/DTD/svg10.dtd">
<svg version="1.0" xmlns="http://www.w3.org/2000/svg"
 width="452.000000pt" height="483.000000pt" viewBox="0 0 452.000000 483.000000"
 preserveAspectRatio="xMidYMid meet">

<g transform="translate(0.000000,483.000000) scale(0.100000,-0.100000)"
fill="#000000" stroke="none">
<path d="M1729 4770 c-8 -14 -31 -59 -51 -100 -42 -89 -77 -133 -137 -172 -38
-23 -56 -28 -110 -28 -59 0 -175 -15 -268 -35 l-32 -7 6 37 6 37 -56 -36 c-79
-51 -137 -46 -137 10 0 27 39 60 80 69 26 6 43 25 23 25 -45 -1 -160 -38 -233
-74 -146 -72 -212 -115 -206 -134 3 -10 14 -63 25 -119 27 -139 90 -246 200
-338 l24 -20 -13 25 c-7 14 -21 37 -31 51 -42 60 -107 269 -84 269 18 0 45
-23 45 -39 0 -27 26 -85 46 -102 15 -12 16 -12 11 6 -4 11 -3 33 1 50 l8 29
33 -57 c40 -71 51 -78 51 -33 0 19 4 37 8 40 5 3 27 -2 50 -9 23 -8 97 -21
164 -30 161 -19 174 -34 148 -155 -20 -90 -89 -220 -116 -220 -7 0 -27 12 -44
26 -17 15 -34 24 -37 20 -10 -9 -5 -74 7 -96 13 -24 10 -24 -33 -6 -18 7 -45
28 -61 46 l-27 33 -60 -62 c-66 -67 -101 -134 -138 -261 -35 -119 -34 -120 12
-25 45 93 176 304 190 305 11 0 8 -79 -4 -102 -16 -31 10 -50 74 -56 70 -6
128 24 228 115 102 94 100 93 164 103 65 11 84 29 85 78 0 26 -6 36 -30 50
-37 21 -38 30 -5 38 28 7 55 -10 55 -35 0 -9 4 -22 9 -30 7 -11 22 -4 73 36
83 66 98 73 156 73 38 0 53 -5 69 -22 58 -64 32 -127 -105 -260 -109 -106
-103 -107 66 -9 102 58 179 127 206 186 37 77 1 186 -75 225 -41 21 -119 36
-240 46 -116 8 -128 19 -38 34 152 25 339 103 451 188 35 26 75 55 89 64 14 9
49 38 78 65 l53 48 -208 3 c-115 2 -210 5 -212 7 -2 2 6 40 17 84 30 116 28
124 -22 69 -36 -39 -176 -142 -184 -135 -1 2 2 30 6 63 5 33 6 86 2 119 -6 58
-6 59 -22 35z m-316 -409 l29 -6 -29 -21 c-58 -43 -69 -45 -138 -33 -36 6 -65
15 -65 19 0 4 21 17 48 28 46 21 100 26 155 13z m-668 -12 c11 -17 -1 -21 -15
-4 -8 9 -8 15 -2 15 6 0 14 -5 17 -11z"/>
<path d="M2339 4472 c-8 -4 -35 -23 -60 -44 -24 -20 -75 -56 -112 -81 l-68
-44 39 -16 c52 -21 144 -43 209 -51 121 -15 386 63 514 151 27 18 26 18 -65
19 -55 1 -122 9 -171 22 -44 11 -111 25 -150 31 -38 6 -81 13 -95 16 -14 2
-32 1 -41 -3z"/>
<path d="M2785 4319 c-33 -18 -91 -42 -128 -54 l-68 -21 68 -46 c159 -108 218
-119 472 -93 102 10 196 15 222 11 60 -9 202 -93 277 -164 70 -65 53 -58 -55
25 -45 35 -112 77 -148 95 -61 28 -72 30 -136 24 -37 -3 -91 -11 -120 -17
l-51 -11 31 -19 c17 -10 68 -55 113 -99 109 -109 156 -130 323 -150 50 -6 127
-18 172 -27 80 -15 84 -18 136 -72 86 -90 90 -114 7 -43 -40 35 -83 70 -97 79
-28 18 -210 31 -236 17 -14 -8 -14 -13 2 -49 10 -22 21 -53 24 -70 5 -23 0
-18 -19 20 -15 28 -33 58 -41 67 -15 16 -72 38 -138 53 l-30 6 41 -43 c22 -24
66 -73 97 -110 64 -75 124 -118 205 -148 74 -28 89 -19 25 14 -29 14 -53 28
-53 30 0 3 28 -7 62 -21 34 -13 107 -36 162 -49 141 -35 191 -52 211 -74 14
-16 8 -15 -47 7 -34 14 -91 28 -125 31 l-62 5 21 -69 c41 -137 68 -169 235
-272 129 -80 156 -109 53 -57 -27 14 -53 25 -58 25 -16 0 -23 -112 -11 -175
20 -108 50 -155 157 -247 147 -125 149 -126 161 -193 12 -65 13 -184 2 -260
-6 -41 -9 -46 -14 -25 -14 52 -26 139 -33 233 -8 109 -19 131 -95 191 l-43 35
-15 -32 c-15 -32 -21 -190 -12 -301 5 -54 45 -123 138 -239 l55 -68 -12 -72
c-20 -114 -26 -119 -33 -24 -7 105 -23 159 -55 194 l-25 27 -40 -44 c-22 -25
-48 -58 -58 -75 -11 -16 -19 -25 -19 -20 0 6 16 35 35 65 19 30 35 68 35 84 0
29 -35 96 -50 96 -5 0 -18 -26 -30 -57 -29 -75 -38 -242 -19 -328 l13 -60 6
45 5 45 14 -55 c8 -30 34 -111 58 -180 l45 -125 -23 -55 c-26 -65 -92 -184
-120 -220 l-20 -25 17 40 c85 201 88 210 88 280 1 73 -24 145 -49 145 -20 0
-109 -103 -148 -172 -20 -35 -36 -57 -37 -50 0 29 56 126 107 181 l53 59 -21
68 -21 69 -24 -45 c-37 -72 -85 -199 -99 -266 -14 -66 -3 -175 29 -301 35
-140 35 -139 -39 -233 -69 -87 -204 -230 -217 -230 -10 0 22 46 104 151 80
102 128 198 128 254 0 72 -12 145 -24 145 -14 0 -163 -141 -195 -185 l-22 -30
21 41 c24 44 64 90 123 141 35 30 37 36 43 105 l5 73 -53 -56 c-61 -63 -116
-162 -147 -263 -25 -81 -27 -113 -6 -76 l15 25 -6 -30 c-3 -16 -8 -37 -10 -46
-3 -9 -13 -83 -24 -165 l-19 -149 -46 -42 c-48 -44 -144 -114 -210 -153 l-40
-24 20 24 c11 12 70 73 131 135 61 61 119 123 129 138 11 18 19 55 23 113 l5
87 -102 -54 c-160 -83 -175 -108 -230 -363 -11 -54 -25 -104 -31 -111 -19 -22
-260 -135 -260 -121 0 2 42 30 93 64 50 33 106 76 124 94 28 30 58 99 77 181
7 30 8 30 -54 17 -96 -21 -96 -21 -80 -10 8 6 34 15 58 21 37 10 46 18 67 60
31 61 32 72 3 63 -42 -12 -183 -110 -249 -171 -80 -76 -125 -149 -166 -272
-21 -63 -40 -102 -55 -113 -28 -21 -190 -64 -273 -72 l-60 -6 45 19 c25 10 82
29 128 41 127 34 174 75 191 162 l8 47 -44 7 c-56 8 -159 -2 -212 -21 -64 -22
-141 -77 -200 -141 -30 -32 -69 -75 -87 -95 -30 -32 -41 -37 -96 -43 -35 -4
-108 -2 -163 3 -55 6 -111 11 -125 11 l-25 1 25 11 c14 6 98 13 186 17 183 7
175 3 243 100 l41 59 -50 21 c-83 36 -219 23 -307 -30 -21 -12 -79 -53 -129
-91 -57 -43 -100 -68 -116 -68 -33 0 -232 52 -278 73 -32 14 -33 15 -10 16 14
1 87 -9 163 -21 l138 -22 42 22 c23 12 69 47 102 77 59 53 60 55 40 71 -11 9
-45 28 -75 42 -109 52 -259 22 -420 -84 -68 -44 -91 -54 -114 -50 -38 8 -204
83 -234 107 l-25 19 23 0 c13 0 65 -13 117 -30 133 -43 158 -41 292 25 61 30
111 58 111 63 0 5 -33 27 -73 48 -68 37 -77 39 -157 39 -78 -1 -97 -5 -223
-53 -77 -29 -148 -52 -159 -52 -28 0 -138 74 -247 166 -113 94 -116 99 -62 90
66 -10 160 -53 223 -101 68 -53 129 -85 160 -85 33 0 178 50 178 61 0 19 -40
89 -71 124 -18 20 -29 38 -27 41 10 9 89 -90 95 -118 6 -31 17 -33 102 -20
l44 7 -64 53 c-35 29 -83 62 -107 73 -47 23 -170 39 -159 21 10 -15 -139 -25
-308 -20 -141 4 -143 5 -177 34 -51 44 -169 188 -157 193 6 2 31 -2 55 -9 33
-10 66 -32 120 -84 114 -107 134 -116 271 -116 l113 0 -31 63 c-44 87 -73 122
-127 154 -46 28 -50 28 -245 32 l-198 3 -38 52 c-67 92 -159 256 -143 256 12
0 82 -76 134 -145 90 -117 136 -145 244 -145 36 0 64 3 62 8 -2 4 -22 46 -45
93 -71 150 -119 187 -302 232 -57 15 -113 33 -125 41 -14 8 -33 45 -51 97 -15
46 -43 119 -62 162 -39 92 -39 96 -13 72 33 -30 56 -73 90 -170 17 -49 41
-101 53 -114 25 -27 90 -58 161 -77 l49 -13 -6 78 c-5 81 -30 155 -60 180 -10
7 -17 18 -17 23 0 18 30 -13 55 -56 13 -23 29 -71 35 -108 14 -80 37 -114 87
-127 20 -6 38 -9 40 -7 5 5 -47 126 -78 181 -17 30 -48 69 -69 89 -41 37 -87
66 -76 47 12 -19 -10 -12 -30 10 -10 12 -71 47 -135 79 -63 32 -120 64 -126
72 -36 43 -78 276 -71 388 l3 55 22 -45 c12 -27 24 -77 28 -125 8 -93 43 -208
82 -267 21 -31 44 -49 90 -70 35 -15 65 -28 68 -28 3 0 6 69 6 153 2 172 16
158 18 -19 l1 -110 35 -34 35 -34 0 70 c-1 145 -48 288 -112 334 -75 54 -246
215 -258 243 -17 38 -6 229 19 327 l19 75 -1 -200 c-2 -193 -1 -201 21 -237
13 -20 42 -51 65 -68 l42 -31 9 23 c62 155 102 208 55 73 l-30 -87 26 -41 c34
-50 36 -47 65 105 23 124 19 190 -16 248 -14 23 -14 23 -9 3 9 -33 -2 -28 -21
9 -9 17 -47 79 -85 137 -75 115 -79 129 -55 222 28 107 145 373 146 331 0 -50
-29 -174 -66 -283 -27 -79 -44 -145 -44 -174 0 -41 5 -52 43 -91 l42 -45 51
78 c98 151 103 208 35 410 -23 67 -41 131 -41 143 0 30 50 118 113 200 l19 25
-7 -59 c-9 -74 -24 -119 -64 -181 -34 -54 -34 -62 0 -139 l21 -48 30 29 c16
15 53 58 81 95 28 37 53 65 55 63 6 -6 -37 -73 -85 -133 -38 -47 -43 -60 -43
-103 0 -27 -4 -49 -10 -49 -5 0 -10 -22 -10 -50 0 -63 -21 -126 -71 -206 -21
-35 -39 -71 -39 -80 0 -20 28 -74 39 -74 17 0 82 197 93 285 11 91 23 123 92
248 21 37 42 84 47 105 13 60 -6 166 -52 283 l-43 108 -30 -53 c-17 -29 -59
-88 -94 -132 -41 -51 -95 -140 -153 -253 -89 -173 -89 -174 -89 -250 l-1 -76
-19 25 c-54 71 -49 73 -49 -16 0 -62 -5 -98 -26 -155 -61 -175 -65 -203 -36
-279 l19 -49 -29 14 c-41 22 -42 20 -14 -36 25 -48 26 -56 23 -202 l-3 -152
38 -63 c43 -73 44 -76 18 -62 -28 14 -46 13 -33 -3 21 -26 55 -94 73 -146 18
-50 36 -87 112 -222 15 -26 24 -49 21 -52 -3 -3 8 -24 25 -47 16 -23 46 -92
67 -153 48 -149 73 -190 140 -233 62 -40 72 -54 134 -178 l45 -91 87 -43 c78
-38 94 -51 158 -127 39 -47 79 -89 88 -94 10 -5 49 -17 87 -26 65 -15 74 -20
151 -95 l82 -80 86 0 87 0 117 -66 c116 -65 118 -65 180 -61 34 3 62 1 62 -3
0 -4 18 -3 39 3 35 9 47 7 117 -23 101 -42 169 -48 248 -21 76 27 82 26 62 -4
l-17 -26 38 17 c90 39 110 43 232 44 l125 0 88 45 c49 25 91 45 93 45 3 0 5
-7 5 -15 0 -13 9 -11 45 10 36 22 215 65 268 65 5 0 44 34 86 75 82 80 110 95
216 120 79 18 93 28 148 110 61 91 85 113 172 157 100 50 130 78 154 143 41
110 85 189 124 224 136 122 131 115 165 283 9 49 20 88 24 88 4 0 10 -10 14
-22 8 -22 8 -22 15 7 4 17 7 53 8 81 1 52 2 54 107 254 20 38 22 51 14 85 -5
24 -5 42 0 45 6 4 6 19 0 40 -16 57 -11 108 16 166 38 81 40 116 10 228 -31
117 -31 114 -6 91 26 -24 26 -20 -12 61 -30 64 -32 78 -37 211 -6 141 -6 141
-38 181 -40 49 -41 54 -7 42 40 -16 40 -12 2 28 -31 32 -39 49 -52 119 -22
117 -35 142 -111 209 -59 52 -64 60 -45 64 20 5 19 8 -19 38 -47 38 -83 95
-111 177 -23 67 -39 88 -95 124 -76 49 -156 126 -226 219 -75 99 -104 122
-184 148 -55 18 -189 87 -329 171 -94 55 -232 106 -321 117 -44 6 -57 3 -110
-25z m835 -729 c0 -5 -4 -10 -10 -10 -5 0 -10 5 -10 10 0 6 5 10 10 10 6 0 10
-4 10 -10z m702 -627 c9 -10 19 -29 23 -43 7 -21 5 -23 -6 -13 -20 17 -52 73
-41 73 5 0 16 -8 24 -17z m-3052 -2213 c0 -5 -4 -10 -9 -10 -6 0 -13 5 -16 10
-3 6 1 10 9 10 9 0 16 -4 16 -10z m1885 -150 c-7 -11 -65 -43 -65 -36 0 4 62
45 68 46 2 0 0 -5 -3 -10z"/>
<path d="M2023 4252 c-34 -20 -60 -39 -58 -43 3 -4 37 -15 77 -25 125 -31 339
-18 448 29 33 14 30 14 -66 9 -107 -5 -215 12 -298 48 l-42 17 -61 -35z"/>
<path d="M2555 4221 c-6 -4 -34 -16 -62 -27 -29 -10 -53 -21 -53 -24 0 -8 113
-55 195 -81 81 -25 354 -41 341 -20 -4 6 -24 11 -44 11 -92 1 -216 46 -315
116 -53 38 -50 37 -62 25z"/>
<path d="M1870 4173 l-44 -16 44 -14 c53 -16 97 -18 169 -8 62 8 57 16 -25 39
-72 19 -86 19 -144 -1z"/>
<path d="M2340 4143 c-14 -2 -29 -8 -33 -13 -11 -10 105 -30 169 -29 l49 0
-44 20 c-48 21 -102 30 -141 22z"/>
<path d="M2000 4084 c0 -3 16 -24 35 -47 28 -33 35 -49 35 -84 0 -55 -29 -131
-69 -182 -17 -21 -31 -42 -31 -45 0 -10 91 36 155 78 32 22 97 75 142 119 l83
80 0 -47 c0 -42 -5 -52 -46 -96 -35 -38 -62 -55 -117 -76 -68 -25 -103 -44
-81 -44 42 0 206 35 261 55 112 42 213 132 213 190 0 52 -99 95 -219 95 -51
-1 -82 -5 -95 -15 -26 -20 -51 -19 -119 5 -52 19 -147 28 -147 14z m317 -70
c-5 -5 -57 13 -57 20 0 3 14 0 31 -6 16 -6 28 -12 26 -14z"/>
<path d="M1034 4071 c-3 -3 5 -13 17 -22 l23 -17 -27 -36 c-15 -19 -66 -72
-112 -118 -94 -91 -119 -137 -131 -236 -8 -73 1 -78 42 -24 45 59 195 202 285
273 103 80 159 129 159 139 0 5 -15 13 -32 19 -37 12 -216 30 -224 22z"/>
<path d="M2604 4015 c23 -29 27 -44 23 -71 -11 -64 -54 -108 -171 -170 l-60
-32 48 -7 c74 -11 256 0 298 18 45 19 98 89 98 129 0 64 -106 141 -224 162
l-40 8 28 -37z"/>
<path d="M3002 4041 c-25 -15 224 -174 333 -211 83 -29 99 -24 34 10 -33 17
-91 63 -137 110 -45 44 -93 85 -107 90 -32 12 -105 13 -123 1z"/>
<path d="M2840 4016 c0 -2 16 -14 36 -26 34 -22 226 -87 208 -71 -33 28 -94
71 -121 85 -28 14 -123 23 -123 12z"/>
<path d="M1218 3939 c-37 -27 -101 -82 -143 -121 l-76 -71 21 -21 21 -21 54
61 c30 34 80 81 111 105 48 37 94 102 82 115 -2 1 -34 -19 -70 -47z"/>
<path d="M2865 3936 c28 -37 32 -74 10 -116 -18 -36 -53 -61 -130 -93 l-60
-25 40 -9 c68 -14 216 -9 258 10 51 22 73 72 53 120 -17 43 -84 99 -147 125
l-49 21 25 -33z"/>
<path d="M1734 3925 c-17 -13 -15 -14 30 -8 41 5 51 3 62 -12 36 -49 9 -103
-95 -189 -143 -118 -190 -179 -191 -246 0 -21 5 -16 29 25 17 30 78 96 148
162 140 131 163 169 139 226 -22 53 -81 73 -122 42z"/>
<path d="M1742 3888 c-14 -14 -16 -57 -3 -77 12 -19 57 -6 71 20 23 41 -35 90
-68 57z"/>
<path d="M1662 3830 c-27 -45 4 -99 50 -85 46 15 52 28 16 39 -25 9 -34 17
-36 39 -4 32 -13 34 -30 7z"/>
<path d="M3080 3844 c0 -4 9 -22 21 -40 25 -41 20 -59 -32 -110 -39 -38 -41
-39 -121 -41 -109 -2 -117 -14 -32 -53 146 -66 249 -75 310 -28 24 19 26 26
22 70 -6 62 -44 117 -115 170 -29 21 -53 36 -53 32z"/>
<path d="M2406 3789 c-28 -11 -92 -29 -144 -39 -102 -21 -150 -48 -177 -100
l-15 -29 42 28 c24 16 93 45 153 65 98 33 195 79 195 91 0 6 3 7 -54 -16z"/>
<path d="M1527 3761 c-30 -46 -29 -48 13 -26 32 16 33 19 21 49 -6 15 -11 12
-34 -23z"/>
<path d="M3310 3751 c24 -34 139 -141 152 -141 10 0 -15 51 -44 93 -17 23
-103 77 -123 77 -4 0 3 -13 15 -29z"/>
<path d="M751 3728 c-34 -23 -82 -64 -107 -91 -36 -40 -44 -56 -44 -88 0 -44
38 -137 65 -159 16 -13 20 -11 47 20 52 63 68 109 68 196 0 56 6 91 20 122 10
23 18 42 16 42 -2 0 -31 -19 -65 -42z"/>
<path d="M3306 3670 c28 -71 29 -72 8 -116 -21 -44 -64 -58 -157 -49 l-72 6
25 -21 c71 -58 204 -101 265 -86 29 7 65 59 65 95 0 49 -73 164 -136 214 l-23
18 25 -61z"/>
<path d="M1395 3706 c-16 -8 -56 -41 -88 -74 -31 -34 -85 -77 -120 -96 -62
-35 -62 -35 -22 -29 53 8 86 25 170 87 106 80 111 82 129 49 l14 -28 7 30 c4
17 8 35 10 41 3 12 -36 34 -58 34 -7 -1 -25 -7 -42 -14z"/>
<path d="M2465 3696 c-17 -7 -36 -21 -44 -30 -16 -20 -29 -21 124 19 l90 23
-70 1 c-38 0 -84 -6 -100 -13z"/>
<path d="M1825 3649 c-49 -28 -101 -61 -113 -73 -30 -27 -62 -88 -62 -118 0
-21 2 -21 19 8 10 16 58 62 107 101 80 64 155 133 143 133 -2 0 -44 -23 -94
-51z"/>
<path d="M2722 3657 c-20 -6 -39 -22 -48 -38 l-14 -28 62 29 c35 17 77 30 93
30 23 0 27 3 15 10 -19 12 -65 11 -108 -3z"/>
<path d="M3484 3515 c43 -120 -15 -182 -164 -173 -38 2 -66 0 -63 -5 11 -19
111 -75 162 -92 70 -23 126 -23 151 0 32 29 28 126 -9 190 -32 55 -90 116 -77
80z"/>
<path d="M756 3453 c-71 -117 -87 -153 -84 -191 l3 -37 31 50 c43 72 105 235
88 235 -2 0 -19 -26 -38 -57z"/>
<path d="M3590 3473 c2 -29 44 -85 94 -125 33 -26 61 -46 63 -44 3 2 -9 31
-26 64 -24 47 -40 65 -77 86 -51 28 -54 30 -54 19z"/>
<path d="M3731 3412 c75 -125 234 -284 306 -306 15 -5 3 11 -35 48 -59 56 -76
83 -116 186 -18 47 -27 58 -66 76 -25 12 -60 25 -78 28 l-34 6 23 -38z"/>
<path d="M3624 3347 c3 -10 9 -43 12 -72 6 -48 4 -56 -19 -79 -39 -39 -68 -41
-160 -13 l-82 26 57 -53 c101 -92 220 -137 274 -101 25 16 26 21 21 74 -7 72
-40 156 -78 201 -17 19 -28 27 -25 17z"/>
<path d="M814 3113 c-37 -50 -136 -216 -169 -283 -36 -72 -70 -169 -62 -176 3
-3 19 19 36 48 17 29 39 64 50 77 l18 24 7 -59 c10 -88 17 -115 27 -108 5 3 9
28 9 56 0 62 42 255 80 366 15 45 27 82 26 82 -1 0 -11 -12 -22 -27z"/>
<path d="M3766 3079 c6 -59 4 -68 -18 -93 -20 -24 -31 -28 -74 -28 -32 1 -72
10 -108 26 -31 14 -53 20 -50 13 27 -45 88 -106 138 -139 73 -47 124 -51 161
-13 37 37 35 129 -4 210 -47 96 -52 99 -45 24z"/>
<path d="M3856 3073 c6 -47 14 -67 44 -103 20 -25 50 -64 65 -87 15 -24 29
-43 30 -43 2 0 -3 28 -11 63 -9 34 -20 83 -25 110 -9 37 -20 54 -53 82 -24 19
-46 35 -50 35 -3 0 -3 -26 0 -57z"/>
<path d="M3970 3088 c0 -61 128 -327 170 -353 13 -8 14 -11 -15 70 -19 54 -25
90 -25 161 l0 90 -52 19 c-29 10 -59 20 -65 23 -7 2 -13 -2 -13 -10z"/>
<path d="M649 2958 c-70 -97 -209 -435 -209 -510 0 -15 7 -46 17 -69 l16 -42
19 37 c11 21 21 66 23 111 9 137 58 295 135 438 22 42 38 77 35 77 -2 0 -19
-19 -36 -42z"/>
<path d="M3870 2880 c0 -61 -22 -107 -56 -120 -45 -17 -97 -11 -136 15 -20 14
-40 25 -43 25 -15 0 50 -105 88 -142 74 -72 131 -82 178 -32 19 20 22 34 21
96 -1 64 -34 208 -47 208 -3 0 -5 -23 -5 -50z"/>
<path d="M773 2825 c-18 -78 -26 -191 -16 -210 9 -15 13 -13 37 18 25 33 54
96 70 157 4 14 -7 1 -24 -28 -17 -30 -35 -51 -38 -47 -4 4 -9 41 -12 83 l-5
77 -12 -50z"/>
<path d="M4030 2680 c0 -65 5 -85 36 -150 l35 -75 -3 95 c-3 86 -7 101 -36
150 l-32 55 0 -75z"/>
<path d="M632 2673 c-63 -140 -92 -278 -92 -443 0 -126 11 -142 27 -37 18 127
23 132 64 60 l34 -60 1 273 c1 151 0 274 -1 274 -1 0 -16 -30 -33 -67z"/>
<path d="M3977 2694 c-4 -4 -7 -19 -7 -34 0 -66 -41 -133 -87 -145 -28 -7 -97
23 -144 62 -26 22 -29 23 -29 6 0 -31 56 -139 96 -182 35 -39 40 -42 83 -39
42 3 47 6 74 50 24 39 30 61 34 130 5 84 -6 166 -20 152z"/>
<path d="M4125 2620 c8 -106 20 -164 51 -261 29 -90 63 -146 39 -65 -19 63
-19 176 -1 246 l15 55 -56 55 -55 55 7 -85z"/>
<path d="M746 2408 c13 -61 26 -116 29 -122 3 -6 2 36 -1 94 -6 114 -7 115
-33 130 -18 9 -17 3 5 -102z"/>
<path d="M696 2408 c5 -74 42 -329 48 -336 7 -6 15 132 10 161 -10 60 -56 257
-60 257 -2 0 -1 -37 2 -82z"/>
<path d="M4002 2361 c-18 -47 -30 -62 -56 -75 -42 -20 -46 -20 -95 0 -27 10
-51 32 -75 67 -40 56 -45 47 -22 -38 34 -126 77 -185 135 -185 28 0 43 8 76
43 49 51 67 107 63 190 l-3 58 -23 -60z"/>
<path d="M4085 2260 c-16 -54 -17 -68 -5 -131 l12 -72 21 54 c28 74 31 127 13
172 -9 20 -18 37 -20 37 -1 0 -11 -27 -21 -60z"/>
<path d="M593 2053 c6 -174 31 -287 82 -373 l27 -45 -6 80 c-9 120 0 124 84
36 l70 -73 -15 42 c-8 24 -31 73 -50 109 -19 36 -68 137 -109 224 -41 86 -78
157 -82 157 -4 0 -4 -71 -1 -157z"/>
<path d="M3751 2095 c-1 -130 51 -207 130 -190 54 12 119 132 119 219 0 31 0
31 -21 -11 -30 -62 -75 -96 -113 -89 -42 9 -73 41 -95 100 l-20 51 0 -80z"/>
<path d="M469 2101 c-10 -35 -8 -46 18 -112 39 -98 53 -100 53 -8 0 59 -5 80
-25 116 -14 23 -28 43 -30 43 -2 0 -9 -17 -16 -39z"/>
<path d="M3722 1919 c-18 -45 -25 -135 -13 -172 21 -61 82 -84 131 -50 38 26
57 52 90 119 37 76 38 95 4 54 -28 -32 -73 -60 -98 -60 -27 0 -84 59 -94 98
l-9 37 -11 -26z"/>
<path d="M4030 1883 c-28 -33 -39 -58 -53 -124 -9 -45 -16 -84 -14 -85 1 -2
29 34 61 78 56 80 57 83 49 127 l-8 45 -35 -41z"/>
<path d="M3642 1676 c-21 -72 -28 -167 -16 -214 6 -19 11 -22 33 -17 54 14
134 90 177 170 l28 50 -39 -33 c-44 -36 -63 -39 -104 -17 -29 14 -40 39 -41
85 -1 59 -17 49 -38 -24z"/>
<path d="M750 1680 c0 -74 75 -247 155 -359 39 -54 49 -62 42 -33 -3 9 -8 38
-12 65 -7 53 0 57 50 31 17 -9 40 -20 53 -25 21 -8 22 -7 11 14 -47 88 -199
267 -271 319 l-28 19 0 -31z"/>
<path d="M600 1652 c0 -6 5 -33 10 -60 9 -40 22 -59 72 -108 l60 -59 -6 40
c-13 79 -19 91 -77 144 -33 30 -59 49 -59 43z"/>
<path d="M3863 1528 c-33 -34 -46 -58 -62 -118 -12 -41 -21 -78 -21 -82 0 -3
17 8 38 27 20 18 50 43 65 56 26 23 28 28 25 92 l-3 68 -42 -43z"/>
<path d="M3538 1503 c-72 -123 -95 -192 -79 -235 23 -61 87 -40 199 66 40 38
71 71 69 73 -2 2 -25 -6 -52 -18 -37 -17 -52 -19 -71 -10 -40 18 -57 55 -50
106 4 25 6 45 4 45 -2 0 -11 -12 -20 -27z"/>
<path d="M3359 1278 c-58 -70 -99 -148 -99 -190 0 -27 2 -28 51 -28 58 0 136
33 214 90 48 36 84 70 72 70 -3 0 -27 -11 -53 -25 -59 -31 -88 -32 -119 0 -27
26 -31 59 -16 113 5 17 8 32 6 32 -2 0 -28 -28 -56 -62z"/>
<path d="M625 1315 c56 -44 84 -80 124 -159 49 -98 72 -119 120 -110 l32 7
-23 26 c-13 14 -44 52 -68 84 -52 69 -110 121 -165 148 -27 13 -33 15 -20 4z"/>
<path d="M994 1284 c12 -63 63 -148 137 -226 68 -71 69 -72 54 -33 -10 25 -14
53 -10 76 l6 36 56 -9 c31 -5 58 -6 61 -3 3 3 -19 30 -49 61 -63 65 -156 120
-218 130 l-44 7 7 -39z"/>
<path d="M820 1287 c0 -8 7 -35 16 -61 15 -44 50 -76 141 -130 9 -5 -31 124
-40 130 -1 1 -28 17 -59 37 -36 23 -58 32 -58 24z"/>
<path d="M3614 1164 c-44 -28 -55 -42 -77 -96 -14 -35 -23 -65 -22 -67 2 -2
30 13 61 33 53 32 59 41 76 93 10 32 17 61 15 64 -1 3 -25 -9 -53 -27z"/>
<path d="M3163 1107 c-70 -71 -102 -126 -106 -183 l-2 -39 56 1 c67 1 179 52
244 111 l40 36 -30 -7 c-16 -3 -53 -9 -81 -12 -48 -6 -53 -5 -69 19 -15 24
-16 30 -1 79 8 29 14 53 12 55 -1 1 -30 -26 -63 -60z"/>
<path d="M3628 1015 c-88 -86 -160 -169 -178 -205 -12 -23 -10 -23 21 6 19 17
66 50 105 73 87 51 107 72 128 135 29 88 22 88 -76 -9z"/>
<path d="M1239 1061 l-23 -19 18 -41 c30 -65 135 -154 255 -216 l35 -17 -31
38 c-82 105 -64 143 60 131 l51 -4 -29 24 c-63 52 -233 123 -293 123 -11 0
-30 -8 -43 -19z"/>
<path d="M1087 1007 c62 -80 80 -98 125 -117 27 -12 52 -20 54 -17 7 7 -54 85
-78 101 -36 23 -113 49 -101 33z"/>
<path d="M2934 974 c-178 -100 -222 -206 -99 -234 76 -17 235 29 305 88 l25
21 -92 1 c-124 0 -125 1 -108 56 7 24 22 60 34 79 11 19 19 35 18 35 -1 0 -39
-21 -83 -46z"/>
<path d="M1003 975 c27 -20 68 -68 92 -105 37 -58 50 -70 79 -75 19 -4 42 -3
52 3 14 8 7 19 -52 79 -71 71 -138 116 -190 129 -26 6 -24 3 19 -31z"/>
<path d="M3345 900 c-16 -4 -46 -11 -65 -14 -28 -5 -41 -15 -64 -54 -16 -26
-38 -57 -49 -69 -11 -13 -16 -23 -10 -23 31 0 120 25 136 39 23 19 100 131 90
130 -5 0 -21 -4 -38 -9z"/>
<path d="M1545 892 c-23 -5 -31 -13 -33 -33 -2 -21 7 -35 42 -66 43 -38 177
-110 257 -139 l37 -12 -55 53 c-45 43 -54 58 -51 81 3 27 8 30 73 45 l70 15
-38 17 c-21 9 -55 21 -75 26 -50 14 -190 21 -227 13z"/>
<path d="M2664 860 c-102 -36 -174 -98 -174 -149 0 -53 9 -56 142 -55 104 1
134 5 193 26 l70 25 -77 11 c-136 21 -152 39 -98 118 36 51 29 54 -56 24z"/>
<path d="M2448 800 c-113 -19 -288 -101 -288 -135 0 -24 65 -54 136 -65 110
-16 314 -10 314 10 0 3 -35 14 -77 24 -43 10 -93 24 -111 32 l-33 14 17 29 c9
16 42 45 72 65 56 37 53 40 -30 26z"/>
<path d="M1925 793 c-39 -10 -115 -46 -115 -53 0 -17 74 -72 128 -96 57 -26
180 -54 230 -54 27 0 27 0 -5 16 -18 9 -49 31 -70 49 l-38 33 24 26 c13 14 47
34 74 44 36 14 46 21 36 28 -16 9 -233 16 -264 7z"/>
<path d="M1430 741 c36 -33 104 -70 128 -71 25 0 -46 77 -77 83 -16 3 -42 9
-57 13 l-29 6 35 -31z"/>
<path d="M2991 703 c-22 -3 -59 -25 -109 -65 l-76 -60 81 3 c78 4 84 6 118 39
20 19 46 47 57 63 l19 27 -28 -2 c-15 0 -43 -3 -62 -5z"/>
<path d="M1700 636 c0 -16 130 -67 162 -64 l33 3 -40 27 c-38 26 -155 51 -155
34z"/>
<path d="M1530 581 c0 -4 24 -11 53 -14 31 -3 79 -19 122 -41 56 -29 81 -36
128 -36 31 0 57 4 57 10 0 14 -63 44 -144 69 -69 21 -216 30 -216 12z"/>
<path d="M2518 543 c-32 -14 -58 -29 -58 -33 0 -4 25 -15 56 -25 56 -17 56
-17 98 5 22 13 56 33 74 45 32 22 32 23 10 29 -49 13 -124 4 -180 -21z"/>
<path d="M2130 553 c-44 -9 -42 -19 10 -53 47 -30 54 -32 107 -25 86 11 89 14
36 48 -48 30 -102 41 -153 30z"/>
<path d="M2990 553 c-157 -27 -343 -99 -395 -153 l-30 -31 69 32 c61 28 83 33
187 39 75 4 124 12 134 20 22 18 78 100 68 99 -4 -1 -19 -4 -33 -6z"/>
<path d="M1931 478 c-84 -9 -97 -16 -36 -18 28 0 66 -7 85 -14 19 -8 58 -23
85 -34 42 -16 56 -18 89 -8 56 16 55 31 -4 51 -72 24 -145 32 -219 23z"/>
<path d="M2303 425 c-65 -18 -128 -44 -121 -50 3 -3 36 2 74 11 64 15 75 15
151 -1 l82 -17 48 27 c41 25 45 29 28 36 -33 13 -207 9 -262 -6z"/>
</g>
</svg>
